# Made in Blockbench 5.1.3
mtllib materials.mtl

o sphere
v -0.125 0 -0.006598300562505264
v -0.119964269415401 0.31995148554999264 -0.006598300562505738
v -0.04565132063766665 0.28125 0.09987976320958218
v -0.04565132063766665 0.09375000000000004 0.09987976320958218
v -0.0040382487281866025 0.25653682128728494 -0.04726930186716383
v 0.0033888601706726917 0.09375000000000004 -0.04726930186716383
v -0.18035938851406885 0.2556635507455022 -0.138212425497363
v -0.0859669748571856 0.1383690797927704 -0.138212425497363
v -0.2909049893279151 0.17405441291701568 -0.04726930186716412
v -0.19715498932791553 0.0741746497074344 -0.04726930186716412
v -0.20434867936233336 0.15625000000000003 0.09987976320958218
v -0.20434867936233336 0.09375000000000004 0.09987976320958218
vt 0.3907323020075206 0.9732400775552283
vt 0.4272229270075206 0.9602760150552283
vt 0.41784480200752067 0.9935432025552283
vt 0.00028593749999999973 0.578125
vt 0.00028593749999999973 0.53125
vt 0.0390625 0.53125
vt 0.038474999999999995 0.5719468750000001
vt 0.46484375 0.54296875
vt 0.4461336961815924 0.5769327851758842
vt 0.423821228555981 0.54296875
vt 0.4272229270075206 0.9602760150552283
vt 0.4569239479924794 1
vt 0.4178448065017633 0.9935431866127225
vt 0.2828056896450533 0.59375
vt 0.28125 0.5530406636440155
vt 0.3131951217804403 0.5639901904067286
vt 0.3297364072080372 0.59375
vt 0.3184368920848166 0.9705042763271029
vt 0.3001529804843592 0.9421142888045966
vt 0.33778582769408627 0.92578125
vt 0.15704318020677477 0.636449230743598
vt 0.18318380520677474 0.604611730743598
vt 0.18770099270677476 0.6615289182435979
vt 0.34213934466372553 0.9997434281977504
vt 0.3184364865550557 0.9705045281287347
vt 0.35185251708481663 0.9497558388271029
vt 0.375 0.9749490083875968
vt 0.35185251708481663 0.9497558388271029
vt 0.3184368920848166 0.9705042763271029
vt 0.3377853295848166 0.925782401327103
vt 0.18318380520677474 0.604611730743598
vt 0.22265625 0.6214447178254134
vt 0.18770101614034523 0.6615292135098284
vt 0.21875 0.5907637047156487
vt 0.22050300093889025 0.55656100759759
vt 0.25705261737799534 0.5632406249999999
vt 0.25705995496602746 0.5746484351402048
vt 0.25705261737799534 0.5632406249999999
vt 0.22050261737799537 0.5565609375
vt 0.23199167987799538 0.53125
vt 0.22265625 0.6214447178254134
vt 0.21995457153108572 0.671875
vt 0.18770139145717502 0.6615287831197499
vt 0.359375 0.5625
vt 0.359375 0.546875
vt 0.3984375 0.546875
vt 0.3984375 0.59375
vt 0.45676648126670616 0.6189268535301911
vt 0.4221397687332938 0.6382942592451655
vt 0.42213976873329384 0.59765625
vn 0.47637913567594864 0.8791448653117597 -0.012931546257284555
vn 0.9487016856137834 0 0.3161725979802268
vn 0.6188124745258528 -0.7579841430054208 0.20623084231881667
vn 0.26328165167469236 0.8136851903378478 -0.5182655525078882
vn 0.7209387443043354 0.03289265384637993 -0.6922177405151002
vn 0.30683042241241304 -0.6999713309272623 -0.644899393519747
vn -0.6353696302469608 0.7676885621693634 -0.08342484326731535
vn -0.4538854857456001 -0.36526313794125387 -0.8127550712796502
vn -0.23643756141590674 -0.6338129720540414 -0.7364634383373845
vn -0.6390194477314025 0.6229147543238014 0.45125530940563074
vn -0.728010213948353 -0.6833311910686488 0.055313756874534645
vn -0.7305789410022675 -0.6806234677118435 0.05482796881073405
vn -0.5027747591938492 0.6383122105399536 0.5829022760233187
vn 0 0 1
vn 0 -0.7505411352961459 0.6608237315868527
usemtl m_f196913b-9239-0025-c215-06bb09a61d8b
f 3/1/1 5/2/1 2/3/1
f 3/4/2 4/5/2 6/6/2 5/7/2
f 6/8/3 4/9/3 1/10/3
f 5/11/4 7/12/4 2/13/4
f 5/14/5 6/15/5 8/16/5 7/17/5
f 8/18/6 6/19/6 1/20/6
f 7/21/7 9/22/7 2/23/7
f 7/24/8 8/25/8 10/26/8 9/27/8
f 10/28/9 8/29/9 1/30/9
f 9/31/10 11/32/10 2/33/10
f 9/34/11 10/35/11 12/36/11 11/37/11
f 12/38/12 10/39/12 1/40/12
f 11/41/13 3/42/13 2/43/13
f 11/44/14 12/45/14 4/46/14 3/47/14
f 4/48/15 12/49/15 1/50/15
o sphere
v -0.08125000000000002 0.10625000000000001 -0.09375000000000003
v -0.08125000000000002 0.29375 -0.09375000000000003
v -0.049325811380675315 0.2662912607362389 -0.027458739263761203
v -0.036102379486794206 0.2 -2.7755575615628914e-17
v -0.04932581138067531 0.1337087392637612 -0.02745873926376119
v -0.009516999307148125 0.2662912607362389 -0.07737741069343247
v 0.020195782449549754 0.2 -0.07059566215148749
v -0.00951699930714811 0.1337087392637612 -0.07737741069343247
v -0.02372459984188746 0.2662912607362389 -0.1396249758109064
v 0.00010320108454212051 0.2 -0.1586270129653215
v -0.023724599841887455 0.1337087392637612 -0.1396249758109064
v -0.08125 0.2662912607362389 -0.1673277484638
v -0.08125 0.2 -0.19780464976638212
v -0.08125 0.1337087392637612 -0.16732774846380002
v -0.13877540015811254 0.2662912607362389 -0.13962497581090644
v -0.16260320108454215 0.2 -0.15862701296532153
v -0.13877540015811257 0.1337087392637612 -0.13962497581090644
v -0.15298300069285192 0.2662912607362389 -0.07737741069343249
v -0.1826957824495498 0.2 -0.0705956621514875
v -0.15298300069285192 0.1337087392637612 -0.07737741069343249
v -0.11317418861932474 0.2662912607362389 -0.027458739263761203
v -0.12639762051320586 0.2 -4.163336342344337e-17
v -0.11317418861932474 0.1337087392637612 -0.02745873926376119
vt 0.4650125 0.665990265126517
vt 0.47569905951571545 0.6778477038030217
vt 0.45703125 0.683927765126517
vt 0.31666875 0.53125
vt 0.3133625 0.51171875
vt 0.3359375 0.51171875
vt 0.33263125 0.53125
vt 0.3602375 0.53125
vt 0.36354375 0.51171875
vt 0.37950625 0.51171875
vt 0.3828125 0.53125
vt 0.5069490595157154 0.9549647961969783
vt 0.4962625 0.966822234873483
vt 0.48828125 0.948884734873483
vt 0.47569905951571545 0.6778477038030217
vt 0.4740454151815484 0.6937243176317347
vt 0.45703125 0.683927765126517
vt 0.47205625 0.90625
vt 0.46875 0.88671875
vt 0.491325 0.88671875
vt 0.48801875 0.90625
vt 0.171875 0.578125
vt 0.17518125 0.55859375
vt 0.19114375 0.55859375
vt 0.19445 0.578125
vt 0.5052954151815484 0.9390881823682654
vt 0.5069490595157154 0.9549647961969783
vt 0.48828125 0.948884734873483
vt 0.4740454151815484 0.6937243176317347
vt 0.4611446951527676 0.703125
vt 0.45703125 0.683927765126517
vt 0.47205625 0.8125
vt 0.46875 0.79296875
vt 0.491325 0.79296875
vt 0.48801875 0.8125
vt 0.265625 0.53125
vt 0.26893125 0.51171875
vt 0.28489375 0.51171875
vt 0.2882 0.53125
vt 0.4923946951527676 0.9296875
vt 0.5052954151815484 0.9390881823682654
vt 0.48828125 0.948884734873483
vt 0.4529178048472324 0.703125
vt 0.4400170848184516 0.6937243176317347
vt 0.45703125 0.683927765126517
vt 0.16041875 0.53125
vt 0.1571125 0.51171875
vt 0.1796875 0.51171875
vt 0.17638125 0.53125
vt 0.4696125 0.859375
vt 0.47291875 0.83984375
vt 0.48888125 0.83984375
vt 0.4921875 0.859375
vt 0.47126708481845164 0.9390881823682654
vt 0.4841678048472324 0.9296875
vt 0.48828125 0.948884734873483
vt 0.4400170848184516 0.6937243176317347
vt 0.43836344048428455 0.6778477038030217
vt 0.45703125 0.683927765126517
vt 0.06666875 0.53125
vt 0.0633625 0.51171875
vt 0.0859375 0.51171875
vt 0.08263125 0.53125
vt 0.1102375 0.53125
vt 0.11354375 0.51171875
vt 0.12950625 0.51171875
vt 0.1328125 0.53125
vt 0.46961344048428455 0.9549647961969783
vt 0.47126708481845164 0.9390881823682654
vt 0.48828125 0.948884734873483
vt 0.43836344048428455 0.6778477038030217
vt 0.44905 0.665990265126517
vt 0.45703125 0.683927765126517
vt 0.00330625 0.515625
vt 0 0.49609375
vt 0.022575 0.49609375
vt 0.01926875 0.515625
vt 0.203125 0.515625
vt 0.20643125 0.49609375
vt 0.22239375 0.49609375
vt 0.2257 0.515625
vt 0.4803 0.966822234873483
vt 0.46961344048428455 0.9549647961969783
vt 0.48828125 0.948884734873483
vt 0.44905 0.665990265126517
vt 0.4650125 0.665990265126517
vt 0.45703125 0.683927765126517
vt 0.0974875 0.65625
vt 0.09418125 0.63671875
vt 0.11675625 0.63671875
vt 0.11345 0.65625
vt 0.29730625 0.90625
vt 0.3006125 0.88671875
vt 0.316575 0.88671875
vt 0.31988125 0.90625
vt 0.4962625 0.966822234873483
vt 0.4803 0.966822234873483
vt 0.48828125 0.948884734873483
vn 0.29919395524195214 0.923879532511287 0.23859921741992993
vn 0.7223181045251696 0.38268343236508984 0.5760294666668017
vn 0.7223181045251698 -0.3826834323650898 0.5760294666668015
vn 0.2991939552419522 -0.9238795325112868 0.23859921741992993
vn 0.37308875974227096 0.9238795325112868 -0.08515507477948774
vn 0.9007159437387481 0.3826834323650898 -0.20558253643753474
vn 0.9007159437387481 -0.3826834323650896 -0.20558253643753452
vn 0.3730887597422711 -0.9238795325112868 -0.08515507477948779
vn 0.16604011853290623 0.9238795325112867 -0.3447858588229869
vn 0.40085630606017875 0.3826834323650897 -0.8323866964849103
vn 0.40085630606017875 -0.3826834323650896 -0.8323866964849103
vn 0.16604011853290634 -0.9238795325112868 -0.3447858588229869
vn -0.16604011853290615 0.923879532511287 -0.34478585882298696
vn -0.4008563060601786 0.3826834323650899 -0.8323866964849103
vn -0.40085630606017847 -0.38268343236508967 -0.8323866964849104
vn -0.16604011853290623 -0.9238795325112868 -0.3447858588229869
vn -0.37308875974227096 0.9238795325112868 -0.08515507477948786
vn -0.9007159437387481 0.3826834323650898 -0.2055825364375347
vn -0.9007159437387481 -0.3826834323650897 -0.20558253643753477
vn -0.3730887597422711 -0.9238795325112868 -0.08515507477948786
vn -0.29919395524195225 0.923879532511287 0.2385992174199298
vn -0.72231810452517 0.38268343236508984 0.5760294666668013
vn -0.7223181045251698 -0.3826834323650896 0.5760294666668014
vn -0.2991939552419523 -0.9238795325112868 0.23859921741992976
vn 0 0.9238795325112868 0.3826834323650897
vn -1.3387345318896381e-16 0.3826834323650898 0.923879532511287
vn 0 -0.3826834323650895 0.9238795325112868
vn 0 -0.9238795325112868 0.38268343236508984
usemtl m_f196913b-9239-0025-c215-06bb09a61d8b
f 15/51/16 18/52/16 14/53/16
f 15/54/17 16/55/17 19/56/17 18/57/17
f 16/58/18 17/59/18 20/60/18 19/61/18
f 20/62/19 17/63/19 13/64/19
f 18/65/20 21/66/20 14/67/20
f 18/68/21 19/69/21 22/70/21 21/71/21
f 19/72/22 20/73/22 23/74/22 22/75/22
f 23/76/23 20/77/23 13/78/23
f 21/79/24 24/80/24 14/81/24
f 21/82/25 22/83/25 25/84/25 24/85/25
f 22/86/26 23/87/26 26/88/26 25/89/26
f 26/90/27 23/91/27 13/92/27
f 24/93/28 27/94/28 14/95/28
f 24/96/29 25/97/29 28/98/29 27/99/29
f 25/100/30 26/101/30 29/102/30 28/103/30
f 29/104/31 26/105/31 13/106/31
f 27/107/32 30/108/32 14/109/32
f 27/110/33 28/111/33 31/112/33 30/113/33
f 28/114/34 29/115/34 32/116/34 31/117/34
f 32/118/35 29/119/35 13/120/35
f 30/121/36 33/122/36 14/123/36
f 30/124/37 31/125/37 34/126/37 33/127/37
f 31/128/38 32/129/38 35/130/38 34/131/38
f 35/132/39 32/133/39 13/134/39
f 33/135/40 15/136/40 14/137/40
f 33/138/41 34/139/41 16/140/41 15/141/41
f 34/142/42 35/143/42 17/144/42 16/145/42
f 17/146/43 35/147/43 13/148/43
o sphere
v 0.0146791149221131 0.2766564209008635 0.016065312298038897
v 0.0738514820726327 0.13872132805732032 0.1621184174549182
v 0.12039365470188217 1.5308084989341915e-17 0.25
v 0.22096139650383512 0.2396958324647175 0.04366023815084674
v 0.246528361454753 -0.011058444450099986 0.061744900929366645
v 0.17044505750518088 0.1868775655523237 -0.18483326882908369
v 0.19421820956304814 0.0005384370263324806 -0.17300536790752397
v 2.4028467771909795e-17 0.1767766952966369 -0.25870732923679995
v 3.398138500607966e-17 1.5308084989341915e-17 -0.3399790660436856
v -0.1534010670883001 0.2392766952966369 -0.12233326882908373
v -0.21694186955877903 1.5308084989341915e-17 -0.17300536790752402
v -0.19128800184760505 0.1767766952966369 0.04366023815084676
v -0.2705220865321328 1.5308084989341915e-17 0.06174490092936672
v -0.0885305969947459 0.18817564163508987 0.17536966084031708
v -0.12039365470188222 1.5308084989341915e-17 0.24999999999999997
vt 0.0509615594978731 0.7765307415573846
vt 0.09201895548086299 0.8108976131210361
vt 0.042062671880045394 0.828125
vt 0.13869572876026698 0.5972526375511411
vt 0.09778370721547952 0.609375
vt 0.0949592816142594 0.55078125
vt 0.15234375 0.55078125
vt 0.10975338181892452 0.8053772725434498
vt 0.13479922229932328 0.7508827375526024
vt 0.16211536474935223 0.8124992032104551
vt 0.4069260152960869 0.671875
vt 0.34375 0.671875
vt 0.35214936162094507 0.612266957712758
vt 0.39918793561904625 0.6124142727933553
vt 0.13479922229932328 0.7508827375526024
vt 0.18038099318107548 0.7416328125
vt 0.16211549678506543 0.8124995010407217
vt 0.390625 0.7340250170638398
vt 0.45465625 0.7338906420638398
vt 0.397059375 0.7806390795638398
vt 0.18038099318107548 0.7416328125
vt 0.21055911818107548 0.785978125
vt 0.16211536818107547 0.8125
vt 0.264265625 0.655953125
vt 0.2518734375 0.609375
vt 0.3203125 0.609375
vt 0.3154515625 0.671875
vt 0 0.6353515235430314
vt 0.030980079122127635 0.6022416650810587
vt 0.05112089894290452 0.65625
vt 0.44140625 0.9375
vt 0.37823034360424035 0.9375
vt 0.38663027178014214 0.8778920729566502
vt 0.43255144661992956 0.8932659953866763
vt 0.030980079122127635 0.6022416650810587
vt 0.07238476662212763 0.6084057275810587
vt 0.05112070412212763 0.6562494775810588
vt 0.399440625 0.8569125
vt 0.390625 0.80859375
vt 0.450821875 0.80859375
vt 0.4412015625 0.859375
vt 0.00969666951913701 0.786972040457358
vt 0.0509615594978731 0.7765307415573846
vt 0.042062680772769645 0.8281249484414757
vt 0.00969666951913701 0.786972040457358
vt 0.0017310445191370122 0.7363626654573581
vt 0.06192791951913701 0.7363626654573581
vt 0.05029198201913701 0.776700165457358
vt 0.06952795414686183 0.8515625
vt 0.1180165531881764 0.893382067599415
vt 0.13091579585313817 0.9521804187144438
vt 0.09958977672488564 0.998878383605758
vt 0.09962639164686182 0.9990578125
vt 0.03942951664686183 0.9990578125
vt 0.0018967041468618273 0.95199375
vt 0.015292016646861833 0.89330625
vt 0.01529201664686184 0.89330625
vt 0.06952795414686183 0.8515625
vt 0.09962639164686182 0.9990578125
vt 0.33883972851315347 0.6936103217225641
vt 0.2876011982279019 0.7320112785517731
vt 0.22740454919179875 0.7320112785517731
vt 0.1885040214868465 0.69140625
vt 0.3703651368201376 0.8125
vt 0.3328327087577679 0.859375
vt 0.272635217172453 0.859375
vt 0.2351036131798624 0.8125
vt 0.14136365066702242 0.9043778213067152
vt 0.14136365066702244 0.8359375
vt 0.2766050993329776 0.9020475121929188
vt 0.1513397285131535 0.6779853217225641
vt 0.10010119822790194 0.7163862785517731
vt 0.03990454919179876 0.7163862785517731
vt 0.0010040214868465014 0.67578125
vt 0.3703651368201376 0.75
vt 0.3328327087577679 0.796875
vt 0.272635217172453 0.796875
vt 0.2351036131798624 0.75
vt 0.15698865066702242 0.9981278213067152
vt 0.15698865066702244 0.9296875
vt 0.2922300993329776 0.9957975121929189
vt 0.3970592464777629 0.7806391838787661
vt 0.45465625 0.7338906420638398
vt 0.44356601507907895 0.78125
vn 0.04104189039327113 0.7346575669984103 0.6771955570475362
vn 0.7198225767169502 0.5274192616532376 0.4513140597031342
vn 0.20414346313192316 0.9429236027376549 -0.26309793967408096
vn 0.9734902596780811 0.08391133104380491 -0.21278064487720544
vn 0.09398008652480333 0.9340525595195781 -0.34454834115362626
vn 0.6514627467432816 0.035007579424508814 -0.7578725215948494
vn 0.07529563412040179 0.9358685072764874 -0.3442102621516182
vn -0.5730808240887753 0.34231483385082695 -0.7445796959274481
vn -0.39675725869986483 0.885242215623358 0.24275480911243952
vn -0.9322529173977042 0.29262415342741305 -0.2127806448772057
vn -0.3986059478099751 0.8867032963518638 0.2342446639931215
vn -0.7223181045251698 0.3826834323650899 0.5760294666668014
vn 0.27781593346944056 0.7520503887551662 0.5976943364996083
vn -1.0676605929604161e-16 0.3686639839481105 0.9295627288889694
vn 0.05577109763110657 -0.9965379725439449 -0.061657553852105085
vn 0 -1 0
vn 0 -1 0
vn 0.05577109763110657 -0.9965379725439449 -0.061657553852105085
vn 0 -1 0
vn 0 -1 0
vn 0.05577109763110657 -0.9965379725439449 -0.061657553852105085
vn 0 -1 0
vn 0 -1 0
vn 0.3462172546989151 0.3918787129998102 -0.8523876388394889
usemtl m_f196913b-9239-0025-c215-06bb09a61d8b
f 37/149/44 39/150/44 36/151/44
f 37/152/45 38/153/45 40/154/45 39/155/45
f 39/156/46 41/157/46 36/158/46
f 39/159/47 40/160/47 42/161/47 41/162/47
f 41/163/48 43/164/48 36/165/48
f 42/166/49 44/167/49 41/168/49
f 43/169/50 45/170/50 36/171/50
f 43/172/51 44/173/51 46/174/51 45/175/51
f 45/176/52 47/177/52 36/178/52
f 45/179/53 46/180/53 48/181/53 47/182/53
f 47/183/54 49/184/54 36/185/54
f 47/186/55 48/187/55 50/188/55 49/189/55
f 49/190/56 37/191/56 36/192/56
f 49/193/57 50/194/57 38/195/57 37/196/57
f 44/197/58 42/198/58 40/199/58 38/200/58
f 38/201/59 50/202/59 48/203/59 46/204/59
f 46/205/60 44/206/60 38/207/60
f 44/208/61 42/209/61 40/210/61 38/211/61
f 38/212/62 50/213/62 48/214/62 46/215/62
f 46/216/63 44/217/63 38/218/63
f 44/219/64 42/220/64 40/221/64 38/222/64
f 38/223/65 50/224/65 48/225/65 46/226/65
f 46/227/66 44/228/66 38/229/66
f 41/230/67 44/231/67 43/232/67